<svg xmlns="http://www.w3.org/2000/svg" viewBox="0 0 256 256" role="img" aria-label="A Mother Choice icon">
  <rect width="256" height="256" rx="56" fill="#9c5f6c" />
  <circle cx="128" cy="128" r="84" fill="#f7ece8" />
  <path
    d="M128 183c-9.9-8.2-19.2-15.7-27.9-22.8-24-19.5-39.1-31.8-39.1-54.1 0-16.4 12.6-28.6 29.1-28.6 12.7 0 22.7 6.9 28.9 16 6.2-9.1 16.1-16 28.9-16 16.5 0 29.1 12.2 29.1 28.6 0 22.2-15.1 34.5-39.1 54.1-8.7 7.1-18 14.6-27.9 22.8Z"
    fill="#b77986"
  />
  <circle cx="103" cy="111" r="10" fill="#ffffff" />
  <circle cx="146" cy="111" r="10" fill="#ffffff" />
</svg>
